<?xml version="1.0" encoding="utf-8"?>
<!-- Generator: Adobe Illustrator 26.5.0, SVG Export Plug-In . SVG Version: 6.00 Build 0)  -->
<svg version="1.1" id="Layer_1" xmlns="http://www.w3.org/2000/svg" xmlns:xlink="http://www.w3.org/1999/xlink" x="0px" y="0px"
	 viewBox="0 0 780 780" style="enable-background:new 0 0 780 780;" xml:space="preserve">
<style type="text/css">
	.st0{fill:#FFFFFF;}
</style>
<path class="st0" d="M358,134c-35.3,0-64,28.7-64,64v224c0,35.3,28.7,64,64,64h224c35.3,0,64-28.7,64-64V198c0-35.3-28.7-64-64-64
	H358z M198,294c-35.3,0-64,28.7-64,64v224c0,35.3,28.7,64,64,64h224c35.3,0,64-28.7,64-64v-64h-64v64H198V358h64v-64H198z"/>
</svg>
